<svg xmlns="http://www.w3.org/2000/svg" viewBox="0 0 500 500"><g id="freepik--background-simple--inject-73"><path d="M85.54,113.63c27.92-59.45,127.06-51.06,165.32-9.25s50.7,68.6,85.21,53,78.52-11.44,81,38.16S379.2,303.79,315,321.14s-64.16,78.76-149.1,66.37c-46.31-6.76-47.36-56.86-40.82-98.3S53.17,182.58,85.54,113.63Z" style="fill:#4CB1A1"></path><path d="M85.54,113.63c27.92-59.45,127.06-51.06,165.32-9.25s50.7,68.6,85.21,53,78.52-11.44,81,38.16S379.2,303.79,315,321.14s-64.16,78.76-149.1,66.37c-46.31-6.76-47.36-56.86-40.82-98.3S53.17,182.58,85.54,113.63Z" style="fill:#fff;opacity:0.9"></path></g><g id="freepik--Shadow--inject-73"><ellipse id="freepik--path--inject-73" cx="250" cy="416.24" rx="193.89" ry="11.32" style="fill:#f5f5f5"></ellipse></g><g id="freepik--speech-bubbles--inject-73"><path d="M152.68,143.22l-67.55-.05a2.55,2.55,0,0,0-2.55,2.55l0,47.3a2.55,2.55,0,0,0,2.55,2.55l29.47,0c2.4,4.9,8,12.5,20.47,16.78,0,0-8.08-7.82-10.43-16.78l28,0a2.54,2.54,0,0,0,2.55-2.55l0-47.3A2.55,2.55,0,0,0,152.68,143.22Z" style="fill:#4CB1A1"></path><path d="M152.68,143.22l-67.55-.05a2.55,2.55,0,0,0-2.55,2.55l0,47.3a2.55,2.55,0,0,0,2.55,2.55l29.47,0c2.4,4.9,8,12.5,20.47,16.78,0,0-8.08-7.82-10.43-16.78l28,0a2.54,2.54,0,0,0,2.55-2.55l0-47.3A2.55,2.55,0,0,0,152.68,143.22Z" style="fill:#fff;opacity:0.7000000000000001"></path><path d="M98.45,161.64V175.2H95.84V163.92H93v-2.28Z" style="fill:#4CB1A1"></path><path d="M112,169.78h-3.37v3.33H107v-3.33h-3.35V168H107V164.7h1.64V168H112Z" style="fill:#4CB1A1"></path><path d="M120.1,161.64V175.2h-2.61V163.92h-2.82v-2.28Z" style="fill:#4CB1A1"></path><path d="M133.66,166v1.74H125.3V166Zm0,4.11v1.72H125.3V170.1Z" style="fill:#4CB1A1"></path><path d="M142,165.37c0-1-.82-1.58-2.17-1.58a6.13,6.13,0,0,0-3.8,1.7l-1-2a8.48,8.48,0,0,1,5.21-2c2.67,0,4.51,1.36,4.51,3.47,0,1.39-1.07,2.92-2.58,4.47l-3.48,3.46h6.66v2.28H135.29v-1.87l5.11-5.27A4.65,4.65,0,0,0,142,165.37Z" style="fill:#4CB1A1"></path><path d="M252,85.34a2.55,2.55,0,0,0-2.56-2.54L174,83.22a2.55,2.55,0,0,0-2.54,2.56l.24,43.75a2.56,2.56,0,0,0,2.57,2.54l40.54-.23c-.7,9.2-8.73,18.28-8.73,18.28,12.36-5.34,16.75-13.76,18.27-18.33l25.45-.14a2.55,2.55,0,0,0,2.53-2.56Z" style="fill:#4CB1A1"></path><path d="M252,85.34a2.55,2.55,0,0,0-2.56-2.54L174,83.22a2.55,2.55,0,0,0-2.54,2.56l.24,43.75a2.56,2.56,0,0,0,2.57,2.54l40.54-.23c-.7,9.2-8.73,18.28-8.73,18.28,12.36-5.34,16.75-13.76,18.27-18.33l25.45-.14a2.55,2.55,0,0,0,2.53-2.56Z" style="fill:#fff;opacity:0.7000000000000001"></path><path d="M190.92,101.93l2.15,3.37,2.21-3.37h2.77l-3.29,5,3.52,5.3h-2.9l-2.31-3.62-2.49,3.62h-2.81l3.62-5.3-3.37-5Z" style="fill:#4CB1A1"></path><path d="M207.59,106.86h-3.36v3.33h-1.65v-3.33h-3.35v-1.74h3.35v-3.35h1.65v3.35h3.36Z" style="fill:#4CB1A1"></path><path d="M210.73,116.15a3.87,3.87,0,0,1-2.57-.92l1.08-1.92a2.11,2.11,0,0,0,1.34.52,1.59,1.59,0,0,0,1.51-1l.31-.68-4.28-10.18h2.61l3,7.53,2.69-7.53h2.53l-4.64,11.65A3.59,3.59,0,0,1,210.73,116.15Z" style="fill:#4CB1A1"></path><path d="M227.83,103.07v1.74h-8.36v-1.74Zm0,4.1v1.73h-8.36v-1.73Z" style="fill:#4CB1A1"></path><path d="M235.93,98.72v13.56h-2.62V101h-2.82V98.72Z" style="fill:#4CB1A1"></path><path d="M384,128.57a2.54,2.54,0,0,0-2.56-2.54l-99.85.59a2.56,2.56,0,0,0-2.54,2.57l.19,30.76a2.54,2.54,0,0,0,2.56,2.54l8.15-.05c0,12.51-11.41,25.46-11.41,25.46,17.74-7.67,22.85-20.23,24.26-25.54l78.85-.46a2.55,2.55,0,0,0,2.53-2.57Z" style="fill:#4CB1A1"></path><path d="M381.41,126l-99.85.59a2.55,2.55,0,0,0-2.53,2.57l.18,30.76a2.54,2.54,0,0,0,2.56,2.54l8.15-.05c0,12.51-11.41,25.46-11.41,25.46,17.74-7.67,22.85-20.23,24.27-25.54l78.84-.46a2.55,2.55,0,0,0,2.53-2.57L384,128.57A2.54,2.54,0,0,0,381.41,126Z" style="fill:#fff;opacity:0.7000000000000001"></path><path d="M313.71,145.9h-7.65a2.89,2.89,0,0,0,3,2.37,3.84,3.84,0,0,0,2.79-1.17l1.35,1.42a5.74,5.74,0,0,1-4.35,1.78,5.27,5.27,0,1,1-.06-10.53C312.39,139.77,314,142.15,313.71,145.9Zm-2.29-1.68a2.46,2.46,0,0,0-2.65-2.5,2.72,2.72,0,0,0-2.77,2.5Z" style="fill:#4CB1A1"></path><path d="M323.37,141v1.74H315V141Zm0,4.1v1.72H315v-1.72Z" style="fill:#4CB1A1"></path><path d="M342.94,143.74v6.46h-2.53v-5.73a2.14,2.14,0,0,0-2.27-2.36,2.72,2.72,0,0,0-2.61,3v5.11H333v-5.73a2.12,2.12,0,0,0-2.24-2.36,2.71,2.71,0,0,0-2.63,3v5.11H325.6V139.85h2.52v1.91a3.83,3.83,0,0,1,3.64-2,3.44,3.44,0,0,1,3.56,2.48,3.84,3.84,0,0,1,3.85-2.48C341.51,139.75,342.94,141.28,342.94,143.74Z" style="fill:#4CB1A1"></path><path d="M350.17,142a3.09,3.09,0,0,0,0,6.16,3.35,3.35,0,0,0,2.79-1.22l1.57,1.3A5.21,5.21,0,0,1,350,150.3a5.27,5.27,0,0,1,0-10.53,5.25,5.25,0,0,1,4.33,1.9l-1.53,1.45A3.54,3.54,0,0,0,350.17,142Z" style="fill:#4CB1A1"></path><path d="M359.72,140.53c0-.52-.42-.81-1.14-.81a3.81,3.81,0,0,0-2.27,1l-.71-1.33a5.47,5.47,0,0,1,3.25-1.18c1.63,0,2.77.81,2.77,2.07a4.1,4.1,0,0,1-1.55,2.65l-2,1.92h3.82v1.45h-6.12v-1.22l3-3.06A2.59,2.59,0,0,0,359.72,140.53Z" style="fill:#4CB1A1"></path></g><g id="freepik--Character--inject-73"><rect x="171.39" y="246.97" width="6.88" height="99.46" transform="translate(-38.64 26.46) rotate(-7.8)" style="fill:#263238"></rect><rect x="128.76" y="246.97" width="6.88" height="99.46" transform="translate(-39.03 20.68) rotate(-7.8)" style="fill:#263238"></rect><g style="isolation:isolate;opacity:0.30000000000000004"><rect x="171.39" y="246.97" width="6.88" height="99.46" transform="translate(-38.64 26.46) rotate(-7.8)" style="fill:#fff"></rect></g><g style="isolation:isolate;opacity:0.4"><rect x="128.76" y="246.97" width="6.88" height="99.46" transform="translate(-39.03 20.68) rotate(-7.8)" style="fill:#fff"></rect></g><path d="M176.13,280.36h-51.4a5.57,5.57,0,0,1-5.52-4.86L115.56,247a4.31,4.31,0,0,1,4.27-4.85h51.4a5.56,5.56,0,0,1,5.52,4.86l3.65,28.47A4.31,4.31,0,0,1,176.13,280.36Z" style="fill:#263238"></path><path d="M176.13,280.36h-51.4a5.57,5.57,0,0,1-5.52-4.86L115.56,247a4.31,4.31,0,0,1,4.27-4.85h51.4a5.56,5.56,0,0,1,5.52,4.86l3.65,28.47A4.31,4.31,0,0,1,176.13,280.36Z" style="fill:#fff;isolation:isolate;opacity:0.6000000000000001"></path><polygon points="176.62 418.06 186.21 418.06 187.39 367.38 187.88 345.97 174.96 345.97 175.45 367.38 176.62 418.06" style="fill:#263238"></polygon><polygon points="176.62 418.06 186.21 418.06 187.39 367.38 187.88 345.97 174.96 345.97 175.45 367.38 176.62 418.06" style="fill:#fff;isolation:isolate;opacity:0.4"></polygon><polygon points="187.88 345.97 187.39 367.97 175.45 367.97 174.96 345.97 187.88 345.97" style="isolation:isolate;opacity:0.2"></polygon><polygon points="225.58 418.06 221.41 347.48 210.18 347.48 216.01 418.06 225.58 418.06" style="fill:#263238"></polygon><polygon points="216 418.06 225.57 418.06 222.03 357.93 221.41 347.34 210.18 347.34 211.05 357.93 216 418.06" style="fill:#fff;isolation:isolate;opacity:0.5"></polygon><polygon points="210.18 347.34 211.04 358.34 222.03 358.34 221.41 347.34 210.18 347.34" style="isolation:isolate;opacity:0.2"></polygon><polygon points="146.82 418.06 152.66 347.48 141.42 347.48 137.25 418.06 146.82 418.06" style="fill:#263238"></polygon><polygon points="146.83 418.06 151.78 357.93 152.65 347.34 141.42 347.34 140.8 357.93 137.26 418.06 146.83 418.06" style="fill:#fff;isolation:isolate;opacity:0.5"></polygon><polygon points="152.65 347.34 151.78 358.34 140.8 358.34 141.42 347.34 152.65 347.34" style="isolation:isolate;opacity:0.2"></polygon><path d="M140.3,335.42h82.22a4.9,4.9,0,0,1,4.9,4.9V351.5a0,0,0,0,1,0,0h-92a0,0,0,0,1,0,0V340.33A4.9,4.9,0,0,1,140.3,335.42Z" style="fill:#263238"></path><rect x="130.99" y="343.46" width="100.85" height="8.04" rx="1.97" style="fill:#263238"></rect><rect x="130.99" y="343.46" width="100.85" height="8.04" rx="1.97" style="fill:#fff;isolation:isolate;opacity:0.6000000000000001"></rect><path d="M232.32,182.83l-1.54-15.63,13.7.86s2.61,10.78-4.89,16Z" style="fill:#eab276"></path><polygon points="235.04 156.87 245.1 159.95 244.48 168.06 230.78 167.2 235.04 156.87" style="fill:#eab276"></polygon><path d="M206.49,228.54s16.65-16.55,19-23.27,6.61-23.39,6.61-23.39l8.09,1.62s-3,19.75-4.65,25-19.5,30-19.5,30Z" style="fill:#e8b276"></path><polygon points="217.85 216.3 226.41 223.68 223.36 228.14 213.79 220.81 217.85 216.3" style="opacity:0.2"></polygon><path d="M225.79,226.89l-12.29-9.46-.22.17c-.07.05-.16.13-.27.2s0,0,0,0l0,0h0c-.36.28-.89.69-1.52,1.22l-.62.5-.16.14-.65.56-.86.77c-1.6,1.43-10.12,8.57-11.47,10.31-.23.32-.46.62-.66.93a12,12,0,0,0-1.11,1.91,2.22,2.22,0,0,0-.1.31.74.74,0,0,0-.07.21,2,2,0,0,0-.11.44,3.2,3.2,0,0,0-.07.33c0,.09,0,.17,0,.27s0,.36-.06.56,0,.41,0,.64,0,.42,0,.64c0,.06,0,.12,0,.18h0c0,.17,0,.33,0,.49s0,.48.07.72,0,.48.08.73.06.51.11.76c1.13,7,12,10.81,15.15,9.08,6.32-3.48,12.48-16.95,14.33-21.3C225.6,227.39,225.79,226.89,225.79,226.89Z" style="fill:#4CB1A1"></path><path d="M195.44,237c0,.2,0,.42,0,.64a.49.49,0,0,0,0,.17v0c0,.17,0,.33,0,.5s0,.47.07.71,0,.49.08.73.07.5.11.76c.93,5.82,8.54,9.42,12.93,9.5a4.58,4.58,0,0,0,2.22-.42,19,19,0,0,0,5.54-5.33c.24-.31.47-.63.7-.95a89.11,89.11,0,0,0,8.1-15l.56-1.38-12.29-9.44-.22.16-.27.2s0,0,0,0a0,0,0,0,1,0,0c-.35.27-.88.69-1.51,1.21l-.62.5c0,.06-.1.08-.15.14-.22.17-.43.35-.66.56l-.85.76c-1.61,1.45-10.13,8.58-11.48,10.31-.23.33-.46.62-.66.95a11.63,11.63,0,0,0-1.11,1.9c0,.11-.08.21-.11.31a1.29,1.29,0,0,0-.06.21,2.57,2.57,0,0,0-.11.44c0,.1,0,.22-.07.33s0,.17,0,.27,0,.36-.06.57S195.46,236.72,195.44,237Z" style="fill:#fff;opacity:0.6000000000000001"></path><polygon points="226.84 226.19 214.46 215.43 212.69 216.68 212.07 217.11 212.95 217.85 213.04 217.93 225.22 228.26 225.55 228.54 226.84 226.19" style="fill:#4CB1A1"></polygon><path d="M208.67,250a4.58,4.58,0,0,0,2.22-.42,19,19,0,0,0,5.54-5.33,20.36,20.36,0,0,0-7-5.77C206.33,242.26,207.48,246.22,208.67,250Z" style="isolation:isolate;opacity:0.2"></path><path d="M255.75,326.5C245.66,313.19,207,311.84,207,311.84s-51,22.75-22.08,24.26c4.54.24,11.77-.05,15.9.15,22.15,1.12,33.2,2.46,36.52,7.21,2.95,4.25-7.31,66.38-7.31,66.38H239S265,338.74,255.75,326.5Z" style="fill:#eab276"></path><path d="M241.57,405.06l-12.39-.77a.78.78,0,0,0-.86.69v0l-1.22,9.77a2,2,0,0,0,1.81,2.07c4.32.2,6.4.08,11.85.37,3.35.2,9.94.92,14.56.47s4.05-5,2.06-5.22c-4.73-.54-11-4-13.95-6.65A3.1,3.1,0,0,0,241.57,405.06Z" style="fill:#263238"></path><path d="M245.37,407.18a13.26,13.26,0,0,1-2.92-.58.23.23,0,0,1-.19-.2.3.3,0,0,1,.12-.26c.37-.23,3.63-2.16,5-1.55a1,1,0,0,1,.55.76,1.38,1.38,0,0,1-.41,1.42A2.92,2.92,0,0,1,245.37,407.18Zm1.74-2.08c-.7-.33-2.6.48-3.93,1.22,1.95.51,3.4.54,4,.06a1,1,0,0,0,.24-.9.49.49,0,0,0-.27-.38Z" style="fill:#4CB1A1"></path><path d="M242.5,406.61a.14.14,0,0,1-.11,0,.3.3,0,0,1-.13-.21c0-.1,0-3.32,1.13-4.34a1.36,1.36,0,0,1,1.12-.28,1,1,0,0,1,.89.83c.17,1.22-1.62,3.43-2.76,4A.17.17,0,0,1,242.5,406.61Zm1.79-4.29a.7.7,0,0,0-.56.2c-.71.59-.9,2.41-.94,3.45,1-.75,2.16-2.43,2.09-3.23,0-.16-.1-.34-.46-.41Z" style="fill:#4CB1A1"></path><path d="M225.52,343.46c-7.14-1-21.73-3.38-32.9-3.95l-13-.64C150.69,337.35,211.1,308,211.1,308s20.5,2.06,35.63,8.11C238.87,323.67,231.4,337.28,225.52,343.46Z" style="fill:#4CB1A1"></path><path d="M151.48,302.75S138.68,339,175,339s39.21-14.15,36.14-30.81Z" style="fill:#4CB1A1"></path><path d="M148,309.84s6.64-48.76,11.27-58.77,12.1-23.68,44.46-15.76c0,0,12.27,3.45,10.18,18.58s-2.79,54.37-2.79,54.37Z" style="fill:#4CB1A1"></path><path d="M213.9,253.89c-.62,4.45-1.12,11-1.51,18-.08,1.62-.17,3.29-.26,4.95-.18,3.85-.34,7.73-.47,11.38,0,.63,0,1.27-.08,1.89-.33,10.19-.47,18.17-.47,18.17L148,309.85s6.64-48.79,11.27-58.77,12.1-23.69,44.46-15.76C203.71,235.32,216,238.76,213.9,253.89Z" style="fill:#fff;opacity:0.6000000000000001"></path><path d="M198.8,244.37l3.75-6.07,5.15,6.07s-1.45-16.11-20.18-16.48a9.34,9.34,0,0,0-9.5,6.35c3.29,5.3,12,11.07,12,11.07l3.46-5.25Z" style="fill:#4CB1A1"></path><path d="M184.22,214.24a56.17,56.17,0,0,1,.45,11.06,19.38,19.38,0,0,1-1.65,7.19s5,4.85,9.52,5.88l5,3.7-.33-5s0-.26-.06-.71c-.12-2,0-8.1,5.59-10.4C210.37,222.72,184.22,214.24,184.22,214.24Z" style="fill:#eab276"></path><path d="M184.22,214.24a56.17,56.17,0,0,1,.45,11.06c3.17,4.72,7.24,9.24,12.47,11-.12-2,0-8.1,5.59-10.4C210.37,222.72,184.22,214.24,184.22,214.24Z" style="isolation:isolate;opacity:0.2"></path><path d="M212.39,271.87c-.08,1.62-.17,3.29-.26,4.95-.18,3.85-.34,7.73-.47,11.38,0,.63,0,1.27-.08,1.89C170.43,288.21,164,257.81,164,257.81s10.68-11.15,16.67-9.94,19.58,17.61,19.58,17.61l-.57,2.27C201.24,269.46,208.86,271.16,212.39,271.87Z" style="isolation:isolate;opacity:0.2"></path><rect x="238.92" y="247.25" width="2.59" height="30.6" transform="translate(-78.46 104.17) rotate(-21.12)" style="fill:#263238"></rect><path d="M246.76,267.11l-3.47-1.46a4.37,4.37,0,0,0-4,.3l-5.64,3.47a8.16,8.16,0,0,0-3.86,6.42l-.11,1.63c5.58,2.82,13.7,1.76,13.7,1.76l2.34-.05a3.64,3.64,0,0,0,3.68-3.65l0-4.65A4.2,4.2,0,0,0,246.76,267.11Z" style="fill:#eab276"></path><path d="M183.75,254.11s18.58,17.61,22.52,17.41l26.21-1.32-.88,7.61c.11,0-23.53,4.31-29.84,3.52-6.29,1.12-26.83-19.52-26.83-19.52Z" style="fill:#e8b276"></path><polygon points="193.69 277.95 199.98 268.08 196.43 265.3 189.64 274.98 193.69 277.95" style="opacity:0.2"></polygon><path d="M169.51,240.68c9.22-8.51,27.93,23.21,27.93,23.21l-11.32,13.95S149.53,259.11,169.51,240.68Z" style="fill:#4CB1A1"></path><path d="M169.51,240.68c9.22-8.51,27.93,23.21,27.93,23.21l-11.32,13.95S149.53,259.11,169.51,240.68Z" style="fill:#fff;opacity:0.6000000000000001"></path><polygon points="183.75 278.47 197.44 261.81 199.98 265.51 188.14 281.23 183.75 278.47" style="fill:#4CB1A1"></polygon><path d="M203.68,185.12s7.86,4.46,6.52,13.45-16-6.3-16-6.3Z" style="fill:#263238"></path><path d="M173.56,208.71c5.52,10.74,8.12,17.33,16.83,20.28,13.11,4.48,26.3-7.17,24.52-19.49-1.54-11.1-10.32-26.77-24.39-25.95S168.06,198,173.56,208.71Z" style="fill:#eab276"></path><path d="M195,207.31c.38,1.14,1.31,1.87,2.06,1.6s1-1.39.64-2.53-1.32-1.86-2.07-1.6S194.65,206.17,195,207.31Z" style="fill:#263238"></path><path d="M206,201.4c.39,1.14,1.32,1.87,2.06,1.6s1-1.4.64-2.54-1.31-1.85-2.06-1.6S205.63,200.26,206,201.4Z" style="fill:#263238"></path><path d="M194.72,198.24a.8.8,0,0,0,.05-.43.73.73,0,0,0-.91-.45,6.92,6.92,0,0,0-4.62,4.52.7.7,0,0,0,.5.86h0a.73.73,0,0,0,.87-.5h0a5.56,5.56,0,0,1,3.76-3.53A.76.76,0,0,0,194.72,198.24Z" style="fill:#263238"></path><path d="M208.64,192.82a.74.74,0,0,0,.29-.32.72.72,0,0,0-.46-.9,7,7,0,0,0-6.4.93.7.7,0,0,0-.11,1h0a.74.74,0,0,0,1,.11h0a5.56,5.56,0,0,1,5.12-.64A.72.72,0,0,0,208.64,192.82Z" style="fill:#263238"></path><path d="M204.37,205.45l4.21,1.43s-.4,1.65-3.45,3.09Z" style="fill:#d48645"></path><path d="M169.82,201.12s-5.62-6.67,1.6-12.55c3.23-2.62,10.68-14.92,10.68-14.92a6.58,6.58,0,0,1,2.71,3.9,63.42,63.42,0,0,0,7.94-7.87s8.76,5.48,9.06,9.37l5.56-4.87s-.53,14.56-7.78,16.89-14.76,1.46-12.28,11.34-2.71,13.29-2.71,13.29l-.39,9.84s-9-.85-13.5-10.78S169.82,201.12,169.82,201.12Z" style="fill:#263238"></path><path d="M185.94,212.41s-4.78-5.51-7.44-2.45,1.39,13.51,6.29,11.95S189.25,215.14,185.94,212.41Z" style="fill:#eab276"></path><path d="M207.44,213.41a34.51,34.51,0,0,0-.64,5l-.89.09c-4,.39-6-.76-7-2.16a5.65,5.65,0,0,1-.89-3.73c2.26,1.07,6,1,8.06.88C206.91,213.48,207.44,213.41,207.44,213.41Z" style="fill:#263238"></path><path d="M206.06,213.52l-.23,1.48c-3.79.35-6.51.09-7.81-.94a5.08,5.08,0,0,1,0-1.42C200.26,213.71,204,213.64,206.06,213.52Z" style="fill:#fff"></path><path d="M205.91,218.53c-4,.39-6-.76-7-2.16a13,13,0,0,1,4.56.46A4.91,4.91,0,0,1,205.91,218.53Z" style="fill:#dd5753"></path><path d="M202.5,311.84l23,6.12-2.64,2.89s2,.75,5.42,6.8,1.86,9.77,1.86,9.77l-4.64,6-22.27-2.71Z" style="opacity:0.2"></path><path d="M224.45,331.08c-5.65-7.46-23.2-14.27-35-16.16l-12.76,21.84c17.83.73,28.52,5.05,28.93,6.7,1.91,7.91-11.47,66.38-11.47,66.38H205S234.54,344.39,224.45,331.08Z" style="fill:#eab276"></path><path d="M196.69,345.41a217.55,217.55,0,0,1-31.92-7.65c-2.77-.91-5.25-10.41-4.57-15.12C162.56,306.1,197.6,309,197.6,309a206.76,206.76,0,0,1,22.67,11.84C213.34,329,203.15,337.18,196.69,345.41Z" style="fill:#4CB1A1"></path><path d="M207.16,405.06l-12.38-.77a.79.79,0,0,0-.87.69v0l-1.21,9.77a1.94,1.94,0,0,0,1.8,2.07c4.33.2,6.4.08,11.86.37,3.34.2,9.94.92,14.55.47s4.05-5,2.06-5.22c-4.73-.54-11-4-13.95-6.65A3.1,3.1,0,0,0,207.16,405.06Z" style="fill:#263238"></path><path d="M211,407.18a13.26,13.26,0,0,1-2.92-.58.22.22,0,0,1-.18-.2.29.29,0,0,1,.11-.26c.37-.23,3.63-2.16,4.95-1.55a1,1,0,0,1,.55.76,1.39,1.39,0,0,1-.4,1.42A3,3,0,0,1,211,407.18Zm1.74-2.08c-.7-.33-2.59.48-3.93,1.22,1.95.51,3.41.54,4,.06a.93.93,0,0,0,.24-.9.47.47,0,0,0-.27-.38Z" style="fill:#4CB1A1"></path><path d="M208.09,406.61a.12.12,0,0,1-.1,0,.27.27,0,0,1-.13-.21c0-.1-.05-3.32,1.12-4.34a1.36,1.36,0,0,1,1.12-.28,1,1,0,0,1,.89.83c.17,1.22-1.62,3.43-2.76,4A.18.18,0,0,1,208.09,406.61Zm1.8-4.29a.71.71,0,0,0-.57.2c-.71.59-.9,2.41-.93,3.45,1-.75,2.15-2.43,2.08-3.23,0-.16-.09-.34-.46-.41Z" style="fill:#4CB1A1"></path></g><g id="freepik--Table--inject-73"><path d="M268.46,276.83c-3.39-.11-11.85.51-11.85.51l-3.92-1.45s-19.78,3.08-22,2.94-8.29,2.21-8.29,2.21L266.05,283Z" style="fill:#4CB1A1"></path><path d="M268.46,276.83c-3.39-.11-11.85.51-11.85.51l-3.92-1.45s-19.78,3.08-22,2.94-8.29,2.21-8.29,2.21L266.05,283Z" style="fill:#fff;opacity:0.9"></path><path d="M278,281s-7.62-7.23-14.7-2.74c0,0-9.47-5.42-19.17,0l-12.92,2.28Z" style="fill:#4CB1A1"></path><path d="M278,281s-7.62-7.23-14.7-2.74c0,0-9.47-5.42-19.17,0l-12.92,2.28Z" style="fill:#fff;opacity:0.7000000000000001"></path><polygon points="212.63 417.36 207.78 417.36 205.66 289.1 214.75 289.1 212.63 417.36" style="fill:#4CB1A1"></polygon><polygon points="212.63 417.36 207.78 417.36 205.66 289.1 214.75 289.1 212.63 417.36" style="fill:#fff;opacity:0.7000000000000001"></polygon><polygon points="266.12 417.36 261.27 417.36 259.15 289.1 268.24 289.1 266.12 417.36" style="fill:#4CB1A1"></polygon><polygon points="266.12 417.36 261.27 417.36 259.15 289.1 268.24 289.1 266.12 417.36" style="fill:#fff;opacity:0.4"></polygon><rect x="210.2" y="286.95" width="91.45" height="30.17" style="fill:#4CB1A1"></rect><rect x="210.2" y="286.95" width="91.45" height="30.17" style="fill:#fff;opacity:0.30000000000000004"></rect><rect x="301.65" y="286.95" width="53.63" height="30.17" style="fill:#4CB1A1"></rect><rect x="301.65" y="286.95" width="53.63" height="30.17" style="fill:#fff;opacity:0.5"></rect><polygon points="357.57 417.36 352.73 417.36 350.6 289.1 359.7 289.1 357.57 417.36" style="fill:#4CB1A1"></polygon><polygon points="357.57 417.36 352.73 417.36 350.6 289.1 359.7 289.1 357.57 417.36" style="fill:#fff;opacity:0.4"></polygon><rect x="288.47" y="280.5" width="76.77" height="8.6" rx="2.65" style="fill:#263238"></rect><rect x="288.47" y="280.5" width="76.77" height="8.6" rx="2.65" style="fill:#fff;opacity:0.4"></rect><rect x="198.12" y="280.5" width="102.3" height="8.6" rx="2.65" style="fill:#263238"></rect><rect x="198.12" y="280.5" width="102.3" height="8.6" rx="2.65" style="fill:#fff;opacity:0.30000000000000004"></rect><polygon points="304.08 417.36 299.23 417.36 297.11 289.1 306.2 289.1 304.08 417.36" style="fill:#4CB1A1"></polygon><polygon points="304.08 417.36 299.23 417.36 297.11 289.1 306.2 289.1 304.08 417.36" style="fill:#fff;opacity:0.7000000000000001"></polygon></g></svg>